<svg xmlns="http://www.w3.org/2000/svg" width="520" height="470" viewBox="0 0 520 470" role="img" font-family="-apple-system, 'Segoe UI', Helvetica, Arial, sans-serif">
<title>Reliability diagram for the spelling choice</title>
<rect width="520" height="470" fill="#fcfcfb"/>
<text x="24.0" y="30.0" font-size="16" fill="#0b0b0b" font-weight="600">Reliability of the spelling choice</text><text x="24.0" y="50.0" font-size="12" fill="#52514e">12,870 answers. ECE 0.010, Brier 0.067. Diagonal: perfect calibration.</text><line x1="64.0" y1="400.0" x2="496.0" y2="400.0" stroke="#e4e3df" stroke-width="1"/><line x1="64.0" y1="76.0" x2="64.0" y2="400.0" stroke="#e4e3df" stroke-width="1"/><text x="56.0" y="404.0" font-size="11" fill="#52514e" text-anchor="end">0.0</text><text x="64.0" y="418.0" font-size="11" fill="#52514e" text-anchor="middle">0.0</text><line x1="64.0" y1="335.2" x2="496.0" y2="335.2" stroke="#e4e3df" stroke-width="1"/><line x1="150.4" y1="76.0" x2="150.4" y2="400.0" stroke="#e4e3df" stroke-width="1"/><text x="56.0" y="339.2" font-size="11" fill="#52514e" text-anchor="end">0.2</text><text x="150.4" y="418.0" font-size="11" fill="#52514e" text-anchor="middle">0.2</text><line x1="64.0" y1="270.4" x2="496.0" y2="270.4" stroke="#e4e3df" stroke-width="1"/><line x1="236.8" y1="76.0" x2="236.8" y2="400.0" stroke="#e4e3df" stroke-width="1"/><text x="56.0" y="274.4" font-size="11" fill="#52514e" text-anchor="end">0.4</text><text x="236.8" y="418.0" font-size="11" fill="#52514e" text-anchor="middle">0.4</text><line x1="64.0" y1="205.6" x2="496.0" y2="205.6" stroke="#e4e3df" stroke-width="1"/><line x1="323.2" y1="76.0" x2="323.2" y2="400.0" stroke="#e4e3df" stroke-width="1"/><text x="56.0" y="209.6" font-size="11" fill="#52514e" text-anchor="end">0.6</text><text x="323.2" y="418.0" font-size="11" fill="#52514e" text-anchor="middle">0.6</text><line x1="64.0" y1="140.8" x2="496.0" y2="140.8" stroke="#e4e3df" stroke-width="1"/><line x1="409.6" y1="76.0" x2="409.6" y2="400.0" stroke="#e4e3df" stroke-width="1"/><text x="56.0" y="144.8" font-size="11" fill="#52514e" text-anchor="end">0.8</text><text x="409.6" y="418.0" font-size="11" fill="#52514e" text-anchor="middle">0.8</text><line x1="64.0" y1="76.0" x2="496.0" y2="76.0" stroke="#e4e3df" stroke-width="1"/><line x1="496.0" y1="76.0" x2="496.0" y2="400.0" stroke="#e4e3df" stroke-width="1"/><text x="56.0" y="80.0" font-size="11" fill="#52514e" text-anchor="end">1.0</text><text x="496.0" y="418.0" font-size="11" fill="#52514e" text-anchor="middle">1.0</text><line x1="64.0" y1="400.0" x2="496.0" y2="76.0" stroke="#52514e" stroke-width="1"/><text x="280.0" y="440.0" font-size="12" fill="#52514e" text-anchor="middle">Jev probability of the option it ranked first</text><text transform="translate(18 238) rotate(-90)" font-size="12" fill="#52514e" text-anchor="middle">share of those answers that were right</text><path d="M183.0,274.0L215.7,292.7L259.9,237.3L299.6,219.6L343.6,193.0L388.0,153.3L431.6,113.9L484.1,83.6" fill="none" stroke="#2a78d6" stroke-width="2" stroke-linejoin="round" stroke-linecap="round"/><circle cx="183.0" cy="274.0" r="5.2552725051033065" fill="#2a78d6" stroke="#fcfcfb" stroke-width="2"/><circle cx="215.7" cy="292.7" r="6.204119982655925" fill="#2a78d6" stroke="#fcfcfb" stroke-width="2"/><circle cx="259.9" cy="237.3" r="6.371067862271737" fill="#2a78d6" stroke="#fcfcfb" stroke-width="2"/><circle cx="299.6" cy="219.6" r="6.652246341003323" fill="#2a78d6" stroke="#fcfcfb" stroke-width="2"/><circle cx="343.6" cy="193.0" r="6.784617292632875" fill="#2a78d6" stroke="#fcfcfb" stroke-width="2"/><circle cx="388.0" cy="153.3" r="6.907948521612273" fill="#2a78d6" stroke="#fcfcfb" stroke-width="2"/><circle cx="431.6" cy="113.9" r="7.189490313699368" fill="#2a78d6" stroke="#fcfcfb" stroke-width="2"/><circle cx="484.1" cy="83.6" r="7.956312530841195" fill="#2a78d6" stroke="#fcfcfb" stroke-width="2"/>
</svg>
